<svg width="898" height="588" viewBox="0 0 898 588" fill="none" xmlns="http://www.w3.org/2000/svg">
<path d="M537.13 33.7451C379.097 82.1085 228.13 63.4118 170.63 42.7451C80.6296 4.24511 -8.37037 73.7451 0.629625 168.245C9.62963 262.745 78.6296 265.745 28.6296 367.745C-21.3704 469.745 37.6296 509.745 87.6296 542.245C137.63 574.745 408.63 601.745 509.13 577.745C609.63 553.745 793.13 554.245 834.63 542.245C902.63 468.245 852.13 450.745 834.63 384.245C817.13 317.745 945.13 239.899 877.13 196.245C770.552 127.825 769.13 -37.2549 537.13 33.7451Z" fill="url(#paint0_linear_3_87)" fill-opacity="0.7"/>
<path d="M249.636 10.7452C195.299 34.8092 196.136 76.7451 193.636 131.745C168.636 184.745 147.136 162.439 81.6364 196.245C16.1364 230.052 49.4697 304.745 81.6364 345.245C156.636 413.745 234.136 483.745 274.636 517.745C368.136 562.745 466.136 517.745 514.136 493.245C562.136 468.745 598.636 502.245 670.136 517.745C741.636 533.245 737.136 395.245 729.136 363.745C721.136 332.245 723.136 293.745 752.636 211.245C782.136 128.745 685.636 177.245 649.636 202.245C613.636 227.245 467.636 223.745 438.136 119.745C408.636 15.7452 319.636 -20.255 249.636 10.7452Z" fill="url(#paint1_linear_3_87)" fill-opacity="0.6"/>
<path d="M480 258.745H345.5C326 279.578 283.8 325.145 271 340.745C258.2 356.345 237.333 353.245 228.5 349.745C230.333 350.745 229.2 350.345 210 340.745C190.8 331.145 190.333 311.745 192.5 303.245L204 197.745C207 177.245 209.377 153.745 212.5 144.245C224.5 107.745 257.5 81.245 300.5 81.245C334.9 81.245 361.167 104.912 370 116.745H455.5C504 64.745 554.5 82.745 580.5 100.245C605.3 113.445 615.833 147.412 618 162.745C622.167 200.578 631.2 281.645 634 303.245C637.5 330.245 618.5 340.745 598 349.245C581.6 356.045 565.5 352.745 554.5 340.745L480 258.745Z" fill="url(#paint2_linear_3_87)"/>
<circle cx="300" cy="174.745" r="60" fill="url(#paint3_linear_3_87)" fill-opacity="0.36"/>
<circle cx="528" cy="174.745" r="60" fill="url(#paint4_linear_3_87)" fill-opacity="0.36"/>
<rect x="380" y="150.745" width="22" height="6" rx="3" fill="#44529B"/>
<rect x="421" y="150.745" width="22" height="6" rx="3" fill="#44529B"/>
<path fill-rule="evenodd" clip-rule="evenodd" d="M307 139.745C307 137.536 305.209 135.745 303 135.745H293C290.791 135.745 289 137.536 289 139.745V161.245C289 163.454 287.209 165.245 285 165.245L263.5 165.245C261.291 165.245 259.5 167.036 259.5 169.245V179.245C259.5 181.454 261.291 183.245 263.5 183.245H285C287.209 183.245 289 185.036 289 187.245V208.745C289 210.954 290.791 212.745 293 212.745H303C305.209 212.745 307 210.954 307 208.745V187.245C307 185.036 308.791 183.245 311 183.245H332.5C334.709 183.245 336.5 181.454 336.5 179.245V169.245C336.5 167.036 334.709 165.245 332.5 165.245L311 165.245C308.791 165.245 307 163.454 307 161.245V139.745Z" fill="#1C236D"/>
<circle cx="530.5" cy="142.245" r="14.5" fill="#EEB153"/>
<circle cx="530.5" cy="202.245" r="14.5" fill="#50B7BB"/>
<circle cx="560.5" cy="172.245" r="14.5" transform="rotate(90 560.5 172.245)" fill="#D3436B"/>
<circle cx="500.5" cy="172.245" r="14.5" transform="rotate(90 500.5 172.245)" fill="#63D2FF"/>
<path fill-rule="evenodd" clip-rule="evenodd" d="M0 334.004C0 351.374 20.8437 368.744 17.3697 387.851C15.6327 398.272 8.68486 408.694 12.1588 420.853C15.6327 433.012 26.0546 439.96 41.6873 443.434C43.4243 433.012 41.6873 426.064 46.8982 417.379C59.057 396.535 69.4789 396.535 92.0595 393.061C90.3225 382.64 88.5856 377.429 85.1116 368.744C79.9007 360.059 79.9007 356.585 81.6377 353.111C90.3225 337.478 97.2704 339.215 102.481 318.372C109.429 295.791 102.481 285.369 88.5856 267.999C72.9528 248.893 78.1637 219.364 67.7419 214.153C60.794 208.942 52.1092 219.364 48.6352 226.312C46.8982 229.786 45.1613 236.734 45.1613 241.945C43.4243 254.104 43.4243 262.789 39.9503 276.684C33.0025 288.843 29.5285 290.58 19.1067 301.002C8.68486 311.424 0 320.109 0 334.004Z" fill="url(#paint5_linear_3_87)"/>
<path d="M56.8374 303.38C70.5787 281.083 66.2261 265.706 62.3321 260.805C71.6128 267.809 68.2159 298.514 59.3726 310.041C50.5293 321.569 48.1374 344.485 50.4046 353.224C52.6717 361.962 54.7583 376.483 53.1706 393.17C51.5828 409.856 53.2729 414.297 58.2093 428.658C43.2756 417.229 52.9081 382.051 49.1984 362.569C45.4887 343.088 39.6608 331.251 56.8374 303.38Z" fill="white" fill-opacity="0.5"/>
<path d="M121.184 406.466C82.3077 380.182 66.0552 398.283 53.5512 406.466C16.4782 430.727 53.5512 551.531 83.1093 565.178C114.288 586.007 194.366 582.884 228.875 578.659C234.524 577.198 247.033 571.648 251.877 561.134C259.481 541.895 262.221 513.507 253.945 502.502C242.924 487.844 169.78 439.32 121.184 406.466Z" fill="url(#paint6_linear_3_87)"/>
<path fill-rule="evenodd" clip-rule="evenodd" d="M406.311 511.59C401.148 514.688 398.05 508.492 399.082 503.329C400.115 490.938 407.343 482.677 406.311 470.286C406.311 454.797 388.756 450.667 378.43 455.83C369.137 462.025 365.007 477.514 366.039 489.906C367.072 495.069 370.17 502.297 372.235 506.427C387.724 535.34 368.104 515.721 360.876 525.014C351.583 535.34 367.072 545.666 375.333 549.796C397.017 565.285 372.235 570.448 368.104 571.481C359.844 574.579 362.941 579.742 363.974 586.97C375.333 586.97 387.724 586.97 400.115 586.97C409.408 586.97 421.8 588.003 435.223 588.003H471.364C477.56 588.003 483.756 586.97 487.886 585.937C495.114 584.905 496.147 582.84 501.31 578.709C505.44 564.253 521.962 541.536 511.636 517.786C507.505 507.46 498.212 502.297 487.886 511.59C480.658 517.786 479.625 525.014 475.495 529.144C469.299 534.307 469.299 530.177 469.299 530.177C466.201 525.014 470.332 516.753 472.397 512.623C481.69 483.71 472.397 481.645 462.071 460.993C455.875 441.373 477.56 424.852 469.299 407.298C461.038 390.776 436.256 391.809 422.832 403.167C394.952 427.95 424.897 462.025 414.571 480.612C410.441 487.84 405.278 493.003 407.343 501.264C408.376 504.362 410.441 509.525 406.311 511.59Z" fill="url(#paint7_linear_3_87)"/>
<circle cx="776.5" cy="117.245" r="57.5" fill="url(#paint8_linear_3_87)" stroke="url(#paint9_linear_3_87)" stroke-width="8"/>
<path d="M813 111.745C813.4 110.145 812.167 106.078 811.5 104.245L846 112.745L811.5 122.245C811.5 122.245 813 118.245 813 115.745C814.2 114.145 789 116.745 777.5 115.745C789 113.745 812.6 113.345 813 111.745Z" fill="url(#paint10_linear_3_87)"/>
<path d="M754.221 80.0312C752.627 80.4541 749.662 83.4989 748.379 84.9684L739.151 50.656L764.139 76.271C764.139 76.271 759.912 76.8905 757.723 78.0984C755.742 77.8209 772.819 106.193 777.5 116.745C770.192 107.643 755.815 79.6083 754.221 80.0312Z" fill="url(#paint11_linear_3_87)"/>
<circle cx="777" cy="116.745" r="6" fill="#E84A88"/>
<g opacity="0.95">
<path d="M123.129 117.126C117.529 117.526 113.463 122.293 112.129 124.626C101.129 124.626 94.8517 124.626 91.6295 125.626C77.1295 130.126 96.6295 135.626 103.129 136.126C109.629 136.626 182.629 138.126 184.629 138.126C186.629 138.126 190.629 136.626 189.629 131.626C188.629 126.626 176.129 126.126 170.629 122.626C165.129 119.126 165.629 106.626 160.629 105.126C145.629 102.626 141.129 113.126 138.629 116.126C136.129 119.126 130.129 116.626 123.129 117.126Z" fill="#DA9FD8"/>
<path d="M150.389 85.745C150.389 89.0587 147.702 91.745 144.389 91.745C141.075 91.745 138.389 89.0587 138.389 85.745C138.389 82.4313 141.075 79.745 144.389 79.745C147.702 79.745 150.389 82.4313 150.389 85.745ZM141.095 85.745C141.095 87.5641 142.569 89.0388 144.389 89.0388C146.208 89.0388 147.682 87.5641 147.682 85.745C147.682 83.9259 146.208 82.4512 144.389 82.4512C142.569 82.4512 141.095 83.9259 141.095 85.745Z" fill="white"/>
<path d="M468.389 348.745C468.389 352.059 465.702 354.745 462.389 354.745C459.075 354.745 456.389 352.059 456.389 348.745C456.389 345.431 459.075 342.745 462.389 342.745C465.702 342.745 468.389 345.431 468.389 348.745ZM459.095 348.745C459.095 350.564 460.57 352.039 462.389 352.039C464.208 352.039 465.682 350.564 465.682 348.745C465.682 346.926 464.208 345.451 462.389 345.451C460.57 345.451 459.095 346.926 459.095 348.745Z" fill="white"/>
<circle cx="646" cy="165.745" r="6" fill="white"/>
<path d="M44.8886 71.245C42.8886 73.645 37.722 76.9116 35.3886 78.245C28.8886 80.745 32.3886 82.245 40.3886 83.245C48.3886 84.245 88.3886 82.245 96.8886 82.245C105.389 82.245 113.889 82.745 113.889 78.245C113.889 73.745 101.389 72.745 96.8886 71.245C92.3886 69.745 88.3886 63.745 86.3886 62.245C77.8886 58.745 72.8886 62.245 69.3886 65.745C65.8886 69.245 61.8886 67.745 55.3886 67.745C48.8886 67.745 47.3886 68.245 44.8886 71.245Z" fill="#DA9FD8"/>
</g>
<path d="M443.5 458.245C433.9 435.445 439.5 421.412 443.5 417.245C434.5 422.745 434 452.245 440.5 464.245C447 476.245 446.5 498.245 443.5 506.245C440.5 514.245 437 527.745 436.5 543.745C436 559.745 434 563.745 428 576.745C442.5 567.745 438 533.245 443.5 515.245C449 497.245 455.5 486.745 443.5 458.245Z" fill="white" fill-opacity="0.5"/>
<path d="M496.5 527.245C494.333 538.245 486.7 564.345 473.5 580.745C485 570.245 494.5 552.745 496.5 527.245Z" fill="white" fill-opacity="0.5"/>
<path d="M589.638 478.472C589.077 475.827 588.797 474.504 589.146 473.468C589.453 472.559 590.076 471.79 590.901 471.302C591.843 470.745 593.195 470.745 595.899 470.745H843.201C845.874 470.745 847.211 470.745 848.148 471.294C848.97 471.776 849.593 472.535 849.905 473.435C850.26 474.461 849.999 475.772 849.478 478.394L828.937 581.594C828.572 583.429 828.39 584.346 827.911 585.032C827.49 585.638 826.909 586.114 826.233 586.41C825.466 586.745 824.531 586.745 822.661 586.745H617.779C615.93 586.745 615.006 586.745 614.245 586.416C613.575 586.125 612.996 585.657 612.573 585.061C612.093 584.385 611.901 583.481 611.518 581.672L589.638 478.472Z" fill="url(#paint12_linear_3_87)"/>
<path d="M759.535 477.64C759.349 475.245 759.256 474.048 759.665 473.125C760.025 472.314 760.643 471.645 761.424 471.224C762.313 470.745 763.514 470.745 765.916 470.745H843.201C845.875 470.745 847.211 470.745 848.148 471.294C848.97 471.776 849.593 472.535 849.905 473.435C850.261 474.461 850 475.772 849.478 478.394L828.938 581.594C828.572 583.429 828.39 584.346 827.911 585.032C827.49 585.638 826.909 586.114 826.233 586.41C825.467 586.745 824.531 586.745 822.661 586.745H773.923C771.834 586.745 770.79 586.745 769.969 586.35C769.246 586.003 768.644 585.446 768.241 584.751C767.784 583.963 767.703 582.922 767.542 580.84L759.535 477.64Z" fill="url(#paint13_linear_3_87)"/>
<path d="M616.865 388.507C616.406 384.92 619.201 381.745 622.817 381.745H684.175C687.083 381.745 689.573 383.831 690.082 386.695L700.747 446.695C701.4 450.371 698.573 453.745 694.839 453.745H630.495C627.476 453.745 624.927 451.501 624.544 448.507L616.865 388.507Z" fill="url(#paint14_linear_3_87)"/>
<rect x="641" y="412.745" width="26" height="50" rx="4" fill="url(#paint15_linear_3_87)"/>
<path d="M631 464.745C631 461.984 633.239 459.745 636 459.745H706C708.761 459.745 711 461.984 711 464.745V465.745H631V464.745Z" fill="#221F65"/>
<rect x="585" y="463.745" width="270" height="8" rx="4" fill="#7BCCF9"/>
<path fill-rule="evenodd" clip-rule="evenodd" d="M258.863 569.512C260.309 566.38 258.622 569.151 261.152 566.621C261.272 566.501 261.995 565.899 262.236 565.658C263.561 564.574 261.513 565.658 264.283 564.212C262.477 561.683 257.779 545.061 255.732 538.437C254.166 533.619 251.757 527.597 249.107 524.465C246.216 521.454 245.253 520.37 246.337 516.636C241.88 516.275 242.242 514.709 239.833 511.216C237.785 508.205 235.978 506.278 235.015 503.146L238.99 500.135C238.99 496.521 244.048 482.309 245.373 477.009C247.903 466.049 246.096 458.822 246.698 448.343L237.665 473.275C231.04 490.499 234.051 490.258 222.97 491.342C210.926 492.185 179.61 493.029 166.722 491.824C162.747 491.463 162.867 492.426 161.783 489.054C159.736 492.185 155.52 493.51 151.907 495.437C149.739 496.762 148.896 497.124 146.728 498.208C144.078 499.412 143.596 499.412 141.428 501.339C143.235 504.471 152.87 505.314 155.882 506.157C161.663 507.723 167.806 511.698 169.974 512.179C181.898 514.588 202.253 497.967 223.452 532.535C229.836 542.893 246.698 563.249 258.863 569.512Z" fill="#923186"/>
<path fill-rule="evenodd" clip-rule="evenodd" d="M221.164 438.466C220.32 444.368 216.948 452.077 215.141 458.701L208.758 479.659C208.637 479.9 208.517 480.261 208.276 480.382C208.396 483.513 207.312 486.886 205.746 489.295C196.593 490.017 167.565 485.802 162.145 488.452L161.784 489.054C162.868 492.426 162.747 491.463 166.722 491.824C179.61 493.029 210.926 492.185 222.97 491.342C234.051 490.258 231.04 490.499 237.665 473.275L246.698 448.343C248.023 444.127 248.625 440.514 249.348 435.696C237.424 436.419 232.124 436.419 221.164 438.466Z" fill="#1A195E"/>
<path fill-rule="evenodd" clip-rule="evenodd" d="M123.482 465.326C123.602 471.95 125.409 472.553 129.504 475.564C132.274 477.732 135.888 479.659 138.778 481.225C144.68 484.477 153.593 487.729 162.145 488.452C167.565 485.802 196.593 490.017 205.746 489.295C207.312 486.886 208.396 483.513 208.276 480.382C206.71 480.02 207.071 482.188 202.735 483.875C197.195 480.02 196.713 476.648 188.402 477.973C181.898 485.681 165.517 476.046 158.652 472.432C153.955 469.903 148.534 466.169 144.921 462.315C138.056 458.46 134.924 449.909 127.336 459.906L123.963 464.724C123.843 464.603 123.602 465.205 123.482 465.326Z" fill="#F4AF73"/>
<path fill-rule="evenodd" clip-rule="evenodd" d="M192.497 459.304C189.727 462.315 181.537 470.625 178.164 471.589C180.212 474.239 183.102 478.575 188.402 477.973C196.713 476.648 197.195 480.02 202.735 483.875C207.071 482.188 206.71 480.02 208.276 480.382C208.517 480.261 208.637 479.9 208.758 479.659L215.141 458.701C216.948 452.077 220.32 444.368 221.164 438.466C216.827 440.032 209.721 445.332 205.746 448.343C200.567 452.438 197.436 456.292 192.497 459.304Z" fill="#AA3487"/>
<path fill-rule="evenodd" clip-rule="evenodd" d="M126.613 384.627C123.482 388.361 125.409 389.083 120.711 391.251L119.748 393.54C121.193 399.803 120.109 404.139 116.375 409.198C119.627 410.643 122.759 414.738 131.792 413.413C138.417 412.329 137.694 412.691 140.344 411.005C138.899 409.68 137.574 408.957 136.851 407.391C138.417 402.814 150.582 395.828 147.209 384.506C140.224 383.061 134.322 378.123 129.022 377.641L126.613 384.627Z" fill="#F4AF73"/>
<path fill-rule="evenodd" clip-rule="evenodd" d="M144.921 462.315C148.534 466.169 153.954 469.903 158.652 472.432C165.517 476.046 181.898 485.681 188.402 477.973C183.103 478.575 180.212 474.239 178.164 471.589C169.613 465.567 158.531 449.066 164.554 439.069L157.086 427.024C155.279 423.892 151.907 419.918 149.739 417.268C146.969 413.775 145.644 411.125 140.344 411.005C136.61 412.209 138.417 412.329 131.792 413.414C122.759 414.738 119.627 410.643 116.375 409.198C110.835 409.198 105.535 413.293 102.163 415.822L97.9469 421.002C82.7707 439.309 106.258 471.228 118.182 485.802C122.036 490.379 123.241 491.583 127.336 495.799C132.395 501.098 132.154 502.062 141.428 501.339C143.596 499.412 144.078 499.412 146.728 498.208C148.896 497.124 149.739 496.762 151.907 495.438C155.52 493.51 159.736 492.185 161.783 489.054L162.145 488.452C153.593 487.729 144.68 484.477 138.778 481.225C135.888 479.659 132.274 477.732 129.504 475.564C125.409 472.553 123.602 471.95 123.482 465.326C123.602 465.205 123.843 464.603 123.963 464.724L127.336 459.906C134.924 449.909 138.056 458.46 144.921 462.315Z" fill="url(#paint16_linear_3_87)"/>
<path fill-rule="evenodd" clip-rule="evenodd" d="M258.863 569.512C261.634 574.33 271.028 579.027 276.93 580.593C278.255 580.834 279.821 581.316 281.628 581.075C289.216 580.473 289.216 574.691 278.857 569.151C275.003 566.983 268.619 563.851 264.283 564.212C261.513 565.658 263.561 564.574 262.236 565.658C261.995 565.899 261.272 566.501 261.152 566.621C258.622 569.151 260.309 566.38 258.863 569.512Z" fill="#362768"/>
<path fill-rule="evenodd" clip-rule="evenodd" d="M113.846 381.977C115.171 385.952 115.412 391.372 119.748 393.54L120.711 391.251C112.039 384.747 117.58 379.568 123 373.546C124.927 371.378 125.65 369.089 127.456 367.162C129.624 364.994 130.829 364.633 132.876 362.344C128.42 356.563 119.507 357.647 117.821 366.319C113.364 365.958 109.148 367.042 109.871 372.1C110.714 377.4 113.364 373.064 113.846 381.977ZM126.613 384.627L129.022 377.641C134.322 378.123 140.224 383.061 147.21 384.506C156.363 386.072 161.663 378.604 158.17 370.655L150.341 369.812C148.414 358.61 145.041 359.453 141.91 361.381C136.61 364.633 136.369 361.381 129.624 368.246C124.325 373.546 124.927 381.254 126.613 384.627Z" fill="url(#paint17_linear_3_87)"/>
<path fill-rule="evenodd" clip-rule="evenodd" d="M246.337 516.636C249.83 516.516 250.432 515.191 253.564 514.227L254.045 511.577L246.939 505.073C244.289 503.266 241.399 502.182 238.99 500.135L235.015 503.146C235.978 506.278 237.785 508.205 239.833 511.216C242.242 514.709 241.88 516.275 246.337 516.636Z" fill="#362768"/>
<path fill-rule="evenodd" clip-rule="evenodd" d="M246.337 516.636C245.253 520.37 246.216 521.454 249.107 524.465C251.636 525.67 258.502 527.958 259.225 524.345C259.706 521.454 255.009 515.793 253.564 514.227C250.432 515.191 249.83 516.516 246.337 516.636Z" fill="#F4AF73"/>
<path fill-rule="evenodd" clip-rule="evenodd" d="M770.599 385.687C772.735 387.74 776.386 394.512 777.599 396.129C783.509 399.137 786.517 404.923 791.909 409.921C794.46 411.611 793.008 410.678 794.791 412.451C795.891 413.55 796.17 413.83 797.124 415.064L804.01 425.34C804.124 425.537 804.269 425.786 804.383 425.973C804.487 426.159 804.642 426.408 804.756 426.595C806.965 430.328 806.478 430.763 809.889 432.246L815.095 408.21C816.619 401.573 819.408 393.547 817.303 387.015C806.944 354.703 803.045 355.232 815.779 355.844C809.454 352.329 788.248 351.779 779.901 353.044L770.599 385.687Z" fill="#D142A2"/>
<path fill-rule="evenodd" clip-rule="evenodd" d="M703.861 459.591L704.732 462.297L715.817 462.411C717.508 459.705 719.633 456.583 723.895 455.505C729.941 453.97 732.689 455.858 733.912 460.814C738.589 464.361 756.497 462.847 764.772 462.867C775.442 462.898 787.388 463.21 797.933 462.618V461.758C795.465 458.823 794.522 456.21 792.199 453.296C790.021 450.548 788.238 448.526 785.22 446.888C779.102 447.676 783.737 449.926 775.805 451.181C771.46 451.865 767.509 450.911 763.621 449.947C756.134 448.07 751.074 446.152 745.225 444.016C739.574 442.522 737.936 441.123 730.107 442.211C727.784 442.533 726.633 443.082 722.775 442.875C717.819 442.605 719.685 441.205 716.647 443.145C717.58 445.291 717.684 444.638 718.441 446.069C719.758 448.568 718.897 445.353 719.499 448.754C717.176 451.73 715.838 452.778 711.856 454.655L705.438 458.097C705.292 458.211 705.012 458.471 704.898 458.564C704.784 458.657 704.453 459.238 704.38 459.062C704.297 458.885 703.996 459.383 703.861 459.591Z" fill="#F4AF73"/>
<path fill-rule="evenodd" clip-rule="evenodd" d="M785.22 446.888C788.238 448.526 790.021 450.548 792.199 453.296C794.522 456.21 795.465 458.823 797.933 461.758L807.784 461.613C810.418 457.278 812.119 452.83 812.088 445.737C812.005 420.84 786.859 401.283 770.599 385.687C766.929 384.433 766.089 383.022 761.298 382.774C754.288 382.774 751.54 382.307 745.173 384.173C741.43 385.273 736.546 387.398 732.678 386.496C733.798 388.881 733.373 387.658 733.528 390.758C727.027 395.414 729.526 396.378 725.523 398.431C721.458 400.526 716.502 398.203 712.437 398.058C711.918 398.255 706.464 401.522 705.324 402.32C704.121 403.16 699.6 406.945 698.905 407.909C693.399 415.51 698.594 421.006 700.968 426.647C705.375 429.488 710.052 437.379 713.806 439.121C715.143 443.072 713.401 440.915 716.647 443.145C719.685 441.205 717.819 442.605 722.775 442.875C726.633 443.082 727.784 442.533 730.107 442.211C737.935 441.123 739.574 442.522 745.225 444.016C751.074 446.152 756.134 448.07 763.621 449.947C767.509 450.911 771.46 451.865 775.805 451.181C783.737 449.926 779.102 447.676 785.22 446.888Z" fill="url(#paint18_linear_3_87)"/>
<path fill-rule="evenodd" clip-rule="evenodd" d="M809.443 428.513C809.423 436.83 811.631 437.867 811.652 445.675C811.683 452.788 809.983 457.257 807.328 461.602L797.446 461.758V462.618C800.401 462.712 803.46 462.795 806.384 462.867C810.657 462.971 811.185 463.925 813.197 461.208C815.914 443.103 820.601 423.795 824.261 405.493C827.196 390.851 828.585 392.884 823.971 378.989C822.053 373.213 818.216 359.94 815.779 355.844C802.994 355.232 806.488 354.278 816.889 386.714C818.994 393.267 816.204 401.335 814.67 408.002L809.443 428.513Z" fill="#752D79"/>
<path fill-rule="evenodd" clip-rule="evenodd" d="M678 453.545C679.701 455.495 681.878 457.143 683.34 459.508L703.861 459.591C703.996 459.383 704.297 458.885 704.38 459.062C704.453 459.238 704.784 458.657 704.898 458.564C705.012 458.471 705.292 458.211 705.438 458.097L711.856 454.655C715.838 452.778 717.176 451.73 719.499 448.754C718.897 445.353 719.758 448.568 718.441 446.069C717.684 444.638 717.58 445.291 716.647 443.145C713.401 440.915 715.143 443.072 713.806 439.121C710.052 437.379 705.375 429.488 700.968 426.647C701.622 429.944 701.062 435.056 700.128 438.064C695.607 452.602 694.083 452.394 678 453.545Z" fill="#D95E64"/>
<path fill-rule="evenodd" clip-rule="evenodd" d="M698.345 354.88C697.152 360.49 699.745 371.139 698.003 374.706C705.168 374.602 706.381 378.118 712.323 377.278C714.812 373.14 714.49 368.619 714.542 362.688C714.604 354.766 713.712 356.248 708.092 353.252L698.345 354.88Z" fill="#F4AF73"/>
<path fill-rule="evenodd" clip-rule="evenodd" d="M711.815 391.536L712.437 398.058C716.502 398.203 721.458 400.526 725.523 398.431C729.526 396.378 727.027 395.414 733.528 390.758C733.373 387.658 733.798 388.881 732.678 386.496C729.567 384.536 727.172 381.011 725.471 378.097L721.241 378.564L719.488 378.844C719.011 388.84 719.779 388.612 711.815 391.536Z" fill="#F4AF73"/>
<path fill-rule="evenodd" clip-rule="evenodd" d="M719.488 378.844L721.241 378.564C725.233 378.024 728.157 379.663 730.013 374.675C731.133 371.647 730.407 365.622 730.055 362.346C724.746 359.722 725.938 357.628 722.941 352.547C721.728 350.473 720.608 348.834 719.229 347.351C716.626 344.572 716.917 346.346 715.62 342.467L707.636 342.581L707.709 343.349C712.25 344.344 714.335 345.526 716.44 348.067C725.668 359.235 720.038 360.013 719.385 365.985C718.845 370.797 720.318 373.088 719.488 378.844Z" fill="#8DAAE7"/>
<path fill-rule="evenodd" clip-rule="evenodd" d="M810.273 389.275L804.228 370.403L798.193 370.143C797.467 386.963 797.342 385.096 803.637 387.844C806.965 389.296 806.83 389.597 810.273 389.275Z" fill="#9A0B6C"/>
<path fill-rule="evenodd" clip-rule="evenodd" d="M715.818 462.411C717.622 463.956 716.377 463.915 723.75 463.718C727.131 463.635 730.501 463.604 733.891 463.583L733.912 460.814C732.689 455.858 729.941 453.97 723.895 455.505C719.633 456.583 717.508 459.705 715.818 462.411Z" fill="#1A195E"/>
<path fill-rule="evenodd" clip-rule="evenodd" d="M777.049 382.763L784.121 384.36C785.386 379.58 787.211 371.73 786.454 367.064L781.778 366.296L777.049 382.763Z" fill="#9A0B6C"/>
<path fill-rule="evenodd" clip-rule="evenodd" d="M715.62 342.467C716.917 346.346 716.626 344.572 719.229 347.351C720.608 348.834 721.728 350.473 722.941 352.547C725.938 357.628 724.746 359.722 730.055 362.346C731.423 356.435 728.81 356.497 726.322 352.785L727.203 344.821C723.698 343.11 721.095 341.233 715.62 342.467ZM698.345 354.88L708.092 353.252C713.712 356.248 714.604 354.766 714.542 362.688C714.49 368.619 714.812 373.14 712.323 377.278C706.381 378.118 705.168 374.602 698.003 374.706C695.587 379.466 697.806 387.906 699.008 393.35L711.815 391.536C719.779 388.612 719.011 388.84 719.488 378.843C720.318 373.088 718.845 370.797 719.384 365.985C720.038 360.013 725.668 359.235 716.44 348.067C714.335 345.526 712.25 344.344 707.708 343.349L707.636 342.581C707.449 342.405 699.983 330.874 692.745 340.715C690.765 343.411 686.648 353.666 698.345 354.88Z" fill="url(#paint19_linear_3_87)"/>
<mask id="path-55-inside-1_3_87" fill="white">
<path d="M835.658 165.07C825.718 177.134 812.301 185.841 797.234 190.002C782.166 194.164 766.182 193.578 751.46 188.325C736.737 183.072 723.993 173.407 714.963 160.647C705.933 147.888 701.058 132.654 701.001 117.023L702.566 117.017C702.621 132.327 707.397 147.247 716.241 159.743C725.084 172.24 737.566 181.706 751.986 186.851C766.405 191.996 782.06 192.569 796.817 188.494C811.574 184.418 824.715 175.891 834.45 164.074L835.658 165.07Z"/>
</mask>
<path d="M835.658 165.07C825.718 177.134 812.301 185.841 797.234 190.002C782.166 194.164 766.182 193.578 751.46 188.325C736.737 183.072 723.993 173.407 714.963 160.647C705.933 147.888 701.058 132.654 701.001 117.023L702.566 117.017C702.621 132.327 707.397 147.247 716.241 159.743C725.084 172.24 737.566 181.706 751.986 186.851C766.405 191.996 782.06 192.569 796.817 188.494C811.574 184.418 824.715 175.891 834.45 164.074L835.658 165.07Z" stroke="black" stroke-opacity="0.5" stroke-width="2" stroke-dasharray="4 6" mask="url(#path-55-inside-1_3_87)"/>
<defs>
<linearGradient id="paint0_linear_3_87" x1="13.5" y1="312.245" x2="876.5" y2="235.245" gradientUnits="userSpaceOnUse">
<stop stop-color="#D0A6FF"/>
<stop offset="1" stop-color="#F8D3F8"/>
</linearGradient>
<linearGradient id="paint1_linear_3_87" x1="44" y1="258.767" x2="758.163" y2="278.173" gradientUnits="userSpaceOnUse">
<stop stop-color="#D5B0FC"/>
<stop offset="1" stop-color="#EC99EC" stop-opacity="0.7"/>
</linearGradient>
<linearGradient id="paint2_linear_3_87" x1="413.018" y1="81.245" x2="413.018" y2="352.734" gradientUnits="userSpaceOnUse">
<stop stop-color="#28307F"/>
<stop offset="1" stop-color="#100745"/>
</linearGradient>
<linearGradient id="paint3_linear_3_87" x1="300" y1="114.745" x2="300" y2="234.745" gradientUnits="userSpaceOnUse">
<stop stop-color="#8CB3FF"/>
<stop offset="1" stop-color="#546B99"/>
</linearGradient>
<linearGradient id="paint4_linear_3_87" x1="528" y1="114.745" x2="528" y2="234.745" gradientUnits="userSpaceOnUse">
<stop stop-color="#8CB3FF"/>
<stop offset="1" stop-color="#546B99"/>
</linearGradient>
<linearGradient id="paint5_linear_3_87" x1="12.317" y1="372.696" x2="92.9075" y2="282.51" gradientUnits="userSpaceOnUse">
<stop stop-color="#E84A88"/>
<stop offset="1" stop-color="#B53BC4"/>
</linearGradient>
<linearGradient id="paint6_linear_3_87" x1="186.292" y1="440.836" x2="115.241" y2="556.53" gradientUnits="userSpaceOnUse">
<stop stop-color="#78C3F9"/>
<stop offset="1" stop-color="#3641F5"/>
</linearGradient>
<linearGradient id="paint7_linear_3_87" x1="475.756" y1="418.269" x2="396.903" y2="564.657" gradientUnits="userSpaceOnUse">
<stop stop-color="#E84A88"/>
<stop offset="1" stop-color="#B53BC4"/>
</linearGradient>
<linearGradient id="paint8_linear_3_87" x1="715" y1="126.012" x2="838" y2="108.478" gradientUnits="userSpaceOnUse">
<stop stop-color="#65E1D0"/>
<stop offset="1" stop-color="#9573ED"/>
</linearGradient>
<linearGradient id="paint9_linear_3_87" x1="776.5" y1="55.745" x2="776.5" y2="178.745" gradientUnits="userSpaceOnUse">
<stop stop-color="#28307F"/>
<stop offset="1" stop-color="#2C3672"/>
</linearGradient>
<linearGradient id="paint10_linear_3_87" x1="811.75" y1="104.245" x2="811.75" y2="122.245" gradientUnits="userSpaceOnUse">
<stop stop-color="#E84A88"/>
<stop offset="1" stop-color="#82294C"/>
</linearGradient>
<linearGradient id="paint11_linear_3_87" x1="750.165" y1="88.2042" x2="765.924" y2="79.5067" gradientUnits="userSpaceOnUse">
<stop stop-color="#E84A88"/>
<stop offset="1" stop-color="#82294C"/>
</linearGradient>
<linearGradient id="paint12_linear_3_87" x1="420.5" y1="528.745" x2="788" y2="528.745" gradientUnits="userSpaceOnUse">
<stop stop-color="#3641F5"/>
<stop offset="0.47" stop-color="#5782F7"/>
<stop offset="1" stop-color="#78C3F9"/>
</linearGradient>
<linearGradient id="paint13_linear_3_87" x1="869" y1="594.745" x2="739.5" y2="470.745" gradientUnits="userSpaceOnUse">
<stop stop-color="#78C3F9"/>
<stop offset="1" stop-color="#3641F5"/>
</linearGradient>
<linearGradient id="paint14_linear_3_87" x1="634" y1="453.745" x2="676" y2="417.745" gradientUnits="userSpaceOnUse">
<stop stop-color="#1A0B47"/>
<stop offset="1" stop-color="#24236B"/>
</linearGradient>
<linearGradient id="paint15_linear_3_87" x1="654" y1="412.745" x2="654" y2="462.745" gradientUnits="userSpaceOnUse">
<stop stop-color="#353A9A"/>
<stop offset="1" stop-color="#151A5E"/>
</linearGradient>
<linearGradient id="paint16_linear_3_87" x1="158.16" y1="492.441" x2="123.194" y2="418.343" gradientUnits="userSpaceOnUse">
<stop stop-color="#E89156"/>
<stop offset="1" stop-color="#F6CC4C"/>
</linearGradient>
<linearGradient id="paint17_linear_3_87" x1="113.756" y1="376.123" x2="155.273" y2="376.123" gradientUnits="userSpaceOnUse">
<stop stop-color="#120945"/>
<stop offset="1" stop-color="#362768"/>
</linearGradient>
<linearGradient id="paint18_linear_3_87" x1="761.862" y1="444.525" x2="746.693" y2="399.96" gradientUnits="userSpaceOnUse">
<stop stop-color="#E89156"/>
<stop offset="1" stop-color="#F6CC4C"/>
</linearGradient>
<linearGradient id="paint19_linear_3_87" x1="693.602" y1="365.048" x2="727.232" y2="365.048" gradientUnits="userSpaceOnUse">
<stop stop-color="#120945"/>
<stop offset="1" stop-color="#362768"/>
</linearGradient>
</defs>
</svg>
